<svg width="188" height="189" viewBox="0 0 188 189" fill="none" xmlns="http://www.w3.org/2000/svg">
<g filter="url(#filter0_bdi_79_2359)">
<g clip-path="url(#clip0_79_2359)">
<rect x="24" y="21" width="140" height="140" rx="46" fill="url(#paint0_linear_79_2359)" fill-opacity="0.1" shape-rendering="crispEdges"/>
<g filter="url(#filter1_bdi_79_2359)">
<rect x="34" y="31" width="120" height="120" rx="36" fill="white" fill-opacity="0.05" shape-rendering="crispEdges"/>
<rect x="34.1983" y="31.1983" width="119.603" height="119.603" rx="35.8017" stroke="white" stroke-opacity="0.1" stroke-width="0.396629" shape-rendering="crispEdges"/>
</g>
<g filter="url(#filter2_bd_79_2359)">
<rect x="44" y="41" width="100" height="100" rx="26" fill="white" fill-opacity="0.1" shape-rendering="crispEdges"/>
</g>
<path d="M121.908 116.086C111.661 103.366 104.24 91.192 102.539 84.3148C102.533 84.2906 102.525 84.2677 102.518 84.244C102.518 84.2414 102.517 84.2388 102.516 84.2362C101.56 81.0937 103.158 77.6746 103.174 77.6419C105.533 72.7342 104.969 70.5559 103.988 68.2185C103.68 67.4869 103.415 66.8552 103.343 66.0185C103.119 63.446 104.515 59.3945 105.072 58.0511C105.217 57.6766 105.21 57.2602 105.052 56.8908C104.894 56.5215 104.598 56.2285 104.227 56.0745C103.856 55.9204 103.44 55.9175 103.067 56.0664C102.694 56.2153 102.394 56.5041 102.231 56.8712C102.148 57.0712 100.403 61.3163 100.254 64.9635C97.8821 65.7252 95.734 67.0597 94 68.8489C92.2657 67.06 90.1174 65.7257 87.7451 64.9642C87.5968 61.3163 85.852 57.0719 85.7688 56.8719C85.611 56.4969 85.3112 56.1996 84.9349 56.0452C84.5586 55.8907 84.1364 55.8915 83.7607 56.0475C83.385 56.2035 83.0864 56.5019 82.9302 56.8775C82.7739 57.2531 82.7728 57.6753 82.9271 58.0517C83.484 59.3959 84.8809 63.4474 84.6566 66.0199C84.5838 66.8559 84.3181 67.4875 84.0112 68.2199C83.0297 70.5572 82.4661 72.7354 84.8244 77.6417C84.8398 77.676 86.4389 81.0951 85.4831 84.2375C85.4791 84.2508 85.4768 84.264 85.4731 84.2772C85.4694 84.2905 85.4648 84.3028 85.4614 84.3162C83.7612 91.1931 76.3394 103.368 66.0921 116.088C65.9612 116.25 65.8647 116.438 65.8085 116.639C65.7523 116.84 65.7376 117.05 65.7653 117.257C65.7931 117.464 65.8626 117.663 65.9697 117.843C66.0768 118.022 66.2193 118.177 66.3885 118.3C66.5794 118.438 71.1361 121.706 77.5269 123.972C81.4683 125.369 85.2403 126.066 88.7635 126.066C92.9524 126.066 96.7898 125.08 100.138 123.114L100.14 123.114H100.141C110.959 116.733 120.306 118.541 120.395 118.56C120.706 118.625 121.029 118.592 121.32 118.466C121.611 118.341 121.857 118.128 122.022 117.858C122.188 117.587 122.266 117.272 122.246 116.955C122.225 116.639 122.108 116.336 121.909 116.089L121.908 116.086Z" fill="white"/>
</g>
<rect x="24.1983" y="21.1983" width="139.603" height="139.603" rx="45.8017" stroke="white" stroke-opacity="0.2" stroke-width="0.396629" shape-rendering="crispEdges"/>
</g>
<defs>
<filter id="filter0_bdi_79_2359" x="0" y="0.173028" width="188" height="188" filterUnits="userSpaceOnUse" color-interpolation-filters="sRGB">
<feFlood flood-opacity="0" result="BackgroundImageFix"/>
<feGaussianBlur in="BackgroundImageFix" stdDeviation="4.75954"/>
<feComposite in2="SourceAlpha" operator="in" result="effect1_backgroundBlur_79_2359"/>
<feColorMatrix in="SourceAlpha" type="matrix" values="0 0 0 0 0 0 0 0 0 0 0 0 0 0 0 0 0 0 127 0" result="hardAlpha"/>
<feOffset dy="3.17303"/>
<feGaussianBlur stdDeviation="12"/>
<feComposite in2="hardAlpha" operator="out"/>
<feColorMatrix type="matrix" values="0 0 0 0 0.136615 0 0 0 0 0.142693 0 0 0 0 0.179167 0 0 0 1 0"/>
<feBlend mode="normal" in2="effect1_backgroundBlur_79_2359" result="effect2_dropShadow_79_2359"/>
<feBlend mode="normal" in="SourceGraphic" in2="effect2_dropShadow_79_2359" result="shape"/>
<feColorMatrix in="SourceAlpha" type="matrix" values="0 0 0 0 0 0 0 0 0 0 0 0 0 0 0 0 0 0 127 0" result="hardAlpha"/>
<feOffset dx="-3.17303" dy="3.17303"/>
<feGaussianBlur stdDeviation="10.709"/>
<feComposite in2="hardAlpha" operator="arithmetic" k2="-1" k3="1"/>
<feColorMatrix type="matrix" values="0 0 0 0 1 0 0 0 0 1 0 0 0 0 1 0 0 0 0.1 0"/>
<feBlend mode="normal" in2="shape" result="effect3_innerShadow_79_2359"/>
</filter>
<filter id="filter1_bdi_79_2359" x="10" y="10.173" width="168" height="168" filterUnits="userSpaceOnUse" color-interpolation-filters="sRGB">
<feFlood flood-opacity="0" result="BackgroundImageFix"/>
<feGaussianBlur in="BackgroundImageFix" stdDeviation="4.75954"/>
<feComposite in2="SourceAlpha" operator="in" result="effect1_backgroundBlur_79_2359"/>
<feColorMatrix in="SourceAlpha" type="matrix" values="0 0 0 0 0 0 0 0 0 0 0 0 0 0 0 0 0 0 127 0" result="hardAlpha"/>
<feOffset dy="3.17303"/>
<feGaussianBlur stdDeviation="12"/>
<feComposite in2="hardAlpha" operator="out"/>
<feColorMatrix type="matrix" values="0 0 0 0 0.136615 0 0 0 0 0.142693 0 0 0 0 0.179167 0 0 0 1 0"/>
<feBlend mode="normal" in2="effect1_backgroundBlur_79_2359" result="effect2_dropShadow_79_2359"/>
<feBlend mode="normal" in="SourceGraphic" in2="effect2_dropShadow_79_2359" result="shape"/>
<feColorMatrix in="SourceAlpha" type="matrix" values="0 0 0 0 0 0 0 0 0 0 0 0 0 0 0 0 0 0 127 0" result="hardAlpha"/>
<feOffset dx="-3.17303" dy="3.17303"/>
<feGaussianBlur stdDeviation="10.709"/>
<feComposite in2="hardAlpha" operator="arithmetic" k2="-1" k3="1"/>
<feColorMatrix type="matrix" values="0 0 0 0 1 0 0 0 0 1 0 0 0 0 1 0 0 0 0.2 0"/>
<feBlend mode="normal" in2="shape" result="effect3_innerShadow_79_2359"/>
</filter>
<filter id="filter2_bd_79_2359" x="17.8225" y="14.8225" width="152.355" height="152.355" filterUnits="userSpaceOnUse" color-interpolation-filters="sRGB">
<feFlood flood-opacity="0" result="BackgroundImageFix"/>
<feGaussianBlur in="BackgroundImageFix" stdDeviation="13.0887"/>
<feComposite in2="SourceAlpha" operator="in" result="effect1_backgroundBlur_79_2359"/>
<feColorMatrix in="SourceAlpha" type="matrix" values="0 0 0 0 0 0 0 0 0 0 0 0 0 0 0 0 0 0 127 0" result="hardAlpha"/>
<feOffset dy="3.17303"/>
<feGaussianBlur stdDeviation="1.58651"/>
<feComposite in2="hardAlpha" operator="out"/>
<feColorMatrix type="matrix" values="0 0 0 0 0 0 0 0 0 0 0 0 0 0 0 0 0 0 0.05 0"/>
<feBlend mode="normal" in2="effect1_backgroundBlur_79_2359" result="effect2_dropShadow_79_2359"/>
<feBlend mode="normal" in="SourceGraphic" in2="effect2_dropShadow_79_2359" result="shape"/>
</filter>
<linearGradient id="paint0_linear_79_2359" x1="94" y1="21" x2="94" y2="161" gradientUnits="userSpaceOnUse">
<stop stop-color="#669D89"/>
<stop offset="1" stop-color="#12241E"/>
</linearGradient>
<clipPath id="clip0_79_2359">
<rect x="24" y="21" width="140" height="140" rx="46" fill="white"/>
</clipPath>
</defs>
</svg>
